<svg id="svg" version="1.1" xmlns="http://www.w3.org/2000/svg" xmlns:xlink="http://www.w3.org/1999/xlink" width="400" height="200" viewBox="0, 0, 400,200"><g id="svgg"><path id="path0" d="M243.428 72.604 C 242.949 72.822,242.439 73.000,242.295 73.000 C 242.151 73.000,242.003 73.067,241.967 73.150 C 241.894 73.313,239.423 74.560,238.050 75.126 C 237.582 75.319,237.200 75.543,237.200 75.623 C 237.200 75.703,236.885 75.873,236.500 76.000 C 236.115 76.127,235.800 76.314,235.800 76.416 C 235.800 76.517,235.625 76.600,235.412 76.600 C 235.198 76.600,234.974 76.680,234.914 76.778 C 234.853 76.876,234.556 77.018,234.254 77.094 C 233.951 77.170,232.848 77.711,231.802 78.296 C 230.756 78.881,229.563 79.477,229.150 79.620 C 228.738 79.763,228.400 79.945,228.400 80.025 C 228.400 80.104,228.063 80.279,227.650 80.413 C 227.238 80.548,226.855 80.712,226.800 80.779 C 226.701 80.899,225.703 81.390,223.200 82.551 C 222.485 82.883,220.955 83.603,219.800 84.152 C 218.645 84.701,217.385 85.261,217.000 85.397 C 215.466 85.939,213.696 86.700,213.633 86.846 C 213.597 86.931,213.479 87.000,213.372 87.000 C 213.265 87.000,212.797 87.173,212.332 87.385 C 211.867 87.597,211.242 87.832,210.943 87.907 C 210.644 87.982,210.400 88.109,210.400 88.190 C 210.400 88.271,210.018 88.451,209.550 88.590 C 209.082 88.730,208.655 88.902,208.600 88.974 C 208.545 89.045,207.690 89.361,206.700 89.676 C 205.710 89.990,204.810 90.319,204.700 90.406 C 204.590 90.493,204.163 90.627,203.750 90.704 C 203.338 90.781,203.000 90.916,203.000 91.002 C 203.000 91.089,202.550 91.268,201.999 91.400 C 201.449 91.532,200.954 91.713,200.898 91.803 C 200.843 91.892,200.438 92.026,199.999 92.100 C 199.560 92.174,199.200 92.307,199.200 92.396 C 199.200 92.484,198.615 92.673,197.900 92.815 C 197.185 92.957,196.600 93.141,196.600 93.224 C 196.600 93.308,196.195 93.436,195.700 93.510 C 195.205 93.585,194.800 93.725,194.800 93.823 C 194.800 93.920,194.640 94.000,194.444 94.000 C 194.248 94.000,193.595 94.138,192.994 94.307 C 190.659 94.962,189.667 95.228,188.800 95.433 C 188.305 95.550,187.810 95.716,187.700 95.800 C 187.590 95.885,187.095 96.020,186.600 96.100 C 186.105 96.180,185.610 96.314,185.500 96.398 C 185.281 96.566,183.584 96.927,181.700 97.207 C 178.405 97.696,177.218 97.913,177.082 98.050 C 177.000 98.133,176.501 98.200,175.973 98.200 C 175.201 98.200,175.035 98.259,175.128 98.500 C 175.220 98.742,175.052 98.800,174.261 98.800 C 173.722 98.800,173.186 98.894,173.070 99.010 C 172.951 99.129,171.609 99.255,169.980 99.301 C 168.396 99.346,166.335 99.466,165.400 99.567 C 162.668 99.862,158.839 100.179,156.936 100.266 C 155.966 100.311,155.071 100.449,154.946 100.574 C 154.684 100.836,149.600 100.897,149.600 100.638 C 149.600 100.548,147.887 100.462,145.793 100.445 C 143.699 100.428,141.899 100.361,141.793 100.296 C 141.687 100.230,141.600 100.308,141.600 100.469 C 141.600 100.792,139.389 100.746,137.200 100.378 C 135.595 100.107,131.076 99.651,129.800 99.631 C 129.195 99.621,127.676 99.478,126.425 99.313 C 125.170 99.148,124.004 99.086,123.825 99.175 C 123.402 99.387,118.564 98.615,118.300 98.294 C 118.076 98.021,115.113 97.507,114.817 97.689 C 114.713 97.754,114.569 97.711,114.497 97.595 C 114.425 97.479,114.195 97.438,113.985 97.505 C 113.775 97.571,113.490 97.555,113.352 97.468 C 113.213 97.381,112.830 97.294,112.500 97.274 C 108.790 97.057,104.771 96.412,104.637 96.012 C 104.598 95.895,104.417 95.800,104.233 95.800 C 103.892 95.799,97.500 94.554,96.149 94.225 C 95.736 94.124,95.355 94.112,95.302 94.197 C 95.187 94.383,91.145 93.478,90.324 93.082 C 90.008 92.930,89.220 92.696,88.574 92.563 C 87.928 92.429,87.400 92.243,87.400 92.148 C 87.400 92.054,87.306 92.034,87.191 92.105 C 87.076 92.176,86.849 92.124,86.686 91.989 C 86.524 91.854,86.333 91.800,86.264 91.870 C 86.194 91.939,86.017 91.897,85.871 91.776 C 85.725 91.655,85.478 91.604,85.322 91.664 C 85.166 91.724,84.983 91.716,84.914 91.647 C 84.777 91.511,84.427 91.426,83.500 91.304 C 83.170 91.261,82.900 91.210,82.900 91.190 C 82.900 91.170,82.630 91.124,82.300 91.087 C 81.970 91.051,80.440 90.707,78.900 90.323 C 77.360 89.939,73.985 89.115,71.400 88.492 C 67.333 87.511,64.122 86.695,62.700 86.281 C 62.480 86.217,62.163 86.145,61.996 86.123 C 61.830 86.100,61.576 86.009,61.433 85.921 C 61.290 85.832,61.120 85.813,61.055 85.878 C 60.990 85.943,60.833 85.910,60.706 85.805 C 60.579 85.699,60.165 85.565,59.787 85.506 C 58.248 85.267,56.901 84.976,52.800 83.996 C 50.435 83.431,47.330 82.728,45.900 82.434 L 43.300 81.900 44.900 81.787 C 46.372 81.682,46.299 81.671,44.000 81.639 C 42.625 81.621,41.297 81.660,41.050 81.726 C 40.610 81.844,40.404 82.400,40.800 82.400 C 40.910 82.400,41.001 82.783,41.003 83.250 C 41.008 84.558,41.112 84.622,44.234 85.248 C 47.256 85.854,47.326 85.870,47.800 86.060 C 48.492 86.338,49.822 86.610,49.988 86.508 C 50.086 86.447,50.196 86.478,50.233 86.576 C 50.270 86.675,52.855 87.394,55.977 88.175 C 59.099 88.956,61.754 89.674,61.877 89.770 C 62.000 89.865,62.415 90.002,62.800 90.074 C 63.185 90.146,65.030 90.606,66.900 91.096 C 68.770 91.586,72.010 92.403,74.099 92.912 C 76.189 93.420,77.944 93.907,77.999 93.995 C 78.144 94.224,89.193 96.931,96.423 98.510 C 98.225 98.903,99.778 99.302,99.874 99.397 C 99.970 99.491,100.173 99.521,100.324 99.463 C 100.476 99.405,100.600 99.449,100.600 99.561 C 100.600 99.673,100.825 99.740,101.100 99.710 C 101.375 99.680,101.600 99.743,101.600 99.851 C 101.600 99.959,101.825 100.004,102.100 99.951 C 102.375 99.898,102.600 99.943,102.600 100.051 C 102.600 100.159,102.827 100.203,103.105 100.150 C 103.382 100.097,103.660 100.135,103.722 100.235 C 103.783 100.335,103.999 100.364,104.200 100.300 C 104.401 100.236,104.617 100.265,104.678 100.365 C 104.740 100.465,105.018 100.503,105.295 100.450 C 105.595 100.393,105.800 100.445,105.800 100.580 C 105.800 100.720,105.984 100.761,106.278 100.688 C 106.541 100.622,106.809 100.653,106.873 100.757 C 106.938 100.861,107.218 100.903,107.495 100.850 C 107.773 100.797,108.001 100.831,108.001 100.927 C 108.002 101.022,108.385 101.117,108.851 101.139 C 109.318 101.160,111.050 101.447,112.700 101.776 C 114.350 102.105,117.477 102.626,119.650 102.934 C 122.797 103.380,123.601 103.555,123.603 103.797 C 123.606 104.053,123.634 104.056,123.786 103.816 C 123.940 103.573,124.280 103.583,126.182 103.888 C 127.401 104.084,128.542 104.188,128.717 104.121 C 128.893 104.054,129.129 104.056,129.243 104.126 C 129.356 104.197,130.001 104.278,130.675 104.308 C 131.349 104.338,132.964 104.466,134.265 104.594 C 135.566 104.721,136.893 104.767,137.215 104.697 C 137.537 104.626,137.801 104.643,137.801 104.734 C 137.803 104.890,140.795 105.065,143.850 105.089 C 144.593 105.095,145.200 105.177,145.200 105.272 C 145.200 105.366,145.426 105.387,145.702 105.317 C 145.978 105.248,148.116 105.187,150.452 105.181 C 157.536 105.165,169.836 104.208,171.047 103.580 C 171.238 103.481,171.840 103.400,172.385 103.400 C 172.930 103.400,173.427 103.318,173.488 103.219 C 173.550 103.119,174.457 102.973,175.503 102.895 C 176.550 102.816,177.455 102.673,177.515 102.576 C 177.575 102.479,177.929 102.400,178.302 102.400 C 178.675 102.400,179.499 102.265,180.132 102.100 C 180.766 101.935,181.580 101.800,181.942 101.800 C 182.304 101.800,182.600 101.718,182.600 101.618 C 182.600 101.517,182.983 101.374,183.450 101.299 C 183.918 101.225,184.705 101.043,185.200 100.896 C 186.418 100.533,187.699 100.216,188.900 99.982 C 189.450 99.874,190.096 99.687,190.337 99.566 C 191.373 99.045,191.778 100.478,191.121 102.340 C 190.968 102.775,190.886 103.357,190.938 103.634 C 191.004 103.978,190.881 104.317,190.548 104.704 L 190.060 105.270 189.357 104.835 C 187.484 103.678,185.447 105.368,186.328 107.348 C 186.511 107.762,186.653 108.153,186.642 108.217 C 186.631 108.281,186.937 108.458,187.322 108.609 C 187.891 108.832,188.002 108.965,187.914 109.315 C 187.766 109.906,188.901 112.128,189.570 112.556 C 189.861 112.742,190.212 113.002,190.350 113.133 C 190.722 113.488,193.001 114.530,194.013 114.808 C 196.802 115.575,199.086 114.827,200.388 112.720 C 200.763 112.112,201.409 111.789,202.800 111.514 C 202.855 111.503,202.990 111.438,203.100 111.370 C 203.210 111.302,203.795 111.180,204.400 111.099 C 205.591 110.941,206.372 110.615,206.801 110.099 C 207.233 109.579,208.513 108.993,208.734 109.214 C 209.342 109.822,210.197 109.785,210.551 109.137 C 211.007 108.303,211.055 104.648,210.618 104.121 C 210.113 103.514,209.524 103.802,209.291 104.769 C 209.175 105.246,208.891 105.786,208.659 105.969 C 208.426 106.151,208.205 106.470,208.168 106.678 C 208.075 107.193,206.868 107.538,203.800 107.925 C 202.425 108.098,200.760 108.321,200.100 108.420 C 199.440 108.519,198.414 108.657,197.820 108.727 L 196.740 108.855 196.855 107.998 C 196.918 107.528,197.053 107.088,197.155 107.021 C 197.359 106.888,197.862 106.000,197.734 106.000 C 197.690 106.000,197.405 106.360,197.100 106.800 C 196.396 107.816,196.257 107.804,195.979 106.700 C 195.854 106.205,195.671 105.800,195.572 105.800 C 195.379 105.800,193.805 102.658,193.802 102.267 C 193.799 101.846,194.291 101.843,194.749 102.260 C 195.490 102.934,195.421 102.556,194.649 101.714 C 194.254 101.283,193.990 101.085,194.063 101.275 C 194.142 101.481,194.115 101.571,193.998 101.499 C 193.889 101.431,193.800 101.161,193.800 100.898 C 193.800 100.634,193.701 100.201,193.579 99.935 C 193.188 99.075,193.582 98.756,195.932 98.033 C 197.124 97.665,198.235 97.297,198.400 97.213 C 198.565 97.129,199.173 96.940,199.750 96.793 C 200.328 96.645,200.800 96.451,200.800 96.362 C 200.800 96.273,200.985 96.200,201.211 96.200 C 201.437 96.200,202.000 96.030,202.461 95.823 C 202.922 95.615,203.593 95.383,203.950 95.307 C 204.308 95.231,204.600 95.085,204.600 94.984 C 204.600 94.883,204.758 94.799,204.950 94.798 C 205.143 94.797,205.750 94.575,206.300 94.304 C 206.850 94.034,207.440 93.810,207.610 93.806 C 207.781 93.803,208.025 93.695,208.154 93.566 C 208.282 93.438,208.683 93.223,209.044 93.089 C 210.455 92.564,211.505 92.109,211.600 91.980 C 211.655 91.905,212.082 91.730,212.550 91.590 C 213.018 91.451,213.400 91.261,213.400 91.168 C 213.400 91.076,213.513 90.999,213.650 90.998 C 213.788 90.997,214.350 90.775,214.900 90.504 C 215.450 90.234,216.014 90.010,216.153 90.006 C 216.292 90.003,216.562 89.918,216.753 89.817 C 216.944 89.716,217.393 89.525,217.750 89.392 C 218.107 89.260,218.400 89.072,218.400 88.976 C 218.400 88.879,218.539 88.800,218.709 88.800 C 218.879 88.800,219.441 88.575,219.958 88.300 C 220.474 88.025,220.996 87.800,221.118 87.800 C 221.239 87.800,221.546 87.620,221.800 87.400 C 222.054 87.180,222.421 87.000,222.616 87.000 C 222.812 87.000,223.090 86.888,223.236 86.750 C 223.494 86.505,227.285 84.600,227.513 84.600 C 227.577 84.600,227.764 84.465,227.929 84.300 C 228.094 84.135,228.405 84.000,228.621 84.000 C 228.836 84.000,229.063 83.869,229.124 83.710 C 229.185 83.550,229.542 83.318,229.918 83.194 C 230.293 83.070,230.600 82.904,230.600 82.825 C 230.600 82.745,230.938 82.560,231.350 82.412 C 231.763 82.264,232.145 82.089,232.200 82.022 C 232.255 81.955,232.837 81.630,233.493 81.300 C 234.149 80.970,234.801 80.595,234.941 80.466 C 235.082 80.337,235.512 80.128,235.898 80.001 C 236.284 79.873,236.600 79.693,236.600 79.600 C 236.600 79.508,236.864 79.374,237.186 79.303 C 237.509 79.232,237.880 79.045,238.011 78.887 C 238.142 78.729,238.324 78.600,238.416 78.600 C 238.574 78.600,239.853 77.810,240.315 77.427 C 240.434 77.329,240.743 77.182,241.002 77.099 C 241.261 77.017,242.289 76.479,243.286 75.904 L 245.100 74.857 245.159 73.529 C 245.228 71.985,245.028 71.879,243.428 72.604 M41.050 86.450 L 41.100 87.100 43.750 87.109 L 46.401 87.118 43.813 87.053 L 41.224 86.989 41.112 86.394 C 41.003 85.818,41.002 85.820,41.050 86.450 M344.157 90.000 C 344.206 90.330,344.280 90.600,344.323 90.600 C 344.365 90.600,344.400 90.330,344.400 90.000 C 344.400 89.670,344.326 89.400,344.235 89.400 C 344.144 89.400,344.109 89.670,344.157 90.000 M344.650 91.072 C 344.403 91.195,344.200 91.424,344.200 91.582 C 344.200 91.784,344.350 91.729,344.700 91.400 C 345.125 91.001,345.333 90.735,345.150 90.825 C 345.123 90.838,344.898 90.949,344.650 91.072 M385.190 92.020 C 384.851 92.691,384.607 93.273,384.647 93.314 C 384.687 93.354,385.008 92.805,385.358 92.094 C 385.709 91.382,385.953 90.800,385.901 90.800 C 385.849 90.800,385.529 91.349,385.190 92.020 M365.807 93.350 C 365.803 93.598,365.872 93.800,365.960 93.800 C 366.048 93.800,366.236 94.122,366.378 94.515 C 366.520 94.908,366.678 95.189,366.728 95.139 C 366.777 95.089,366.592 94.565,366.316 93.974 C 365.972 93.237,365.812 93.041,365.807 93.350 M383.840 94.904 C 383.601 95.397,383.447 95.800,383.499 95.800 C 383.634 95.800,384.442 94.175,384.352 94.085 C 384.310 94.043,384.080 94.412,383.840 94.904 M358.793 95.750 L 357.700 96.900 358.850 95.807 C 359.918 94.791,360.092 94.600,359.943 94.600 C 359.912 94.600,359.394 95.118,358.793 95.750 M317.550 95.345 C 317.908 95.389,318.493 95.389,318.850 95.345 C 319.207 95.300,318.915 95.264,318.200 95.264 C 317.485 95.264,317.193 95.300,317.550 95.345 M320.400 95.667 C 320.400 95.719,320.690 95.862,321.045 95.986 C 321.400 96.110,321.603 96.129,321.495 96.028 C 321.268 95.815,320.400 95.529,320.400 95.667 M167.200 96.800 C 167.475 97.015,167.780 97.193,167.877 97.196 C 167.974 97.198,167.825 97.020,167.545 96.800 C 167.266 96.580,166.961 96.402,166.868 96.404 C 166.776 96.407,166.925 96.585,167.200 96.800 M323.000 97.063 C 323.000 97.097,323.293 97.390,323.650 97.713 L 324.300 98.300 323.713 97.650 C 323.165 97.044,323.000 96.908,323.000 97.063 M161.154 99.345 C 161.513 99.389,162.053 99.389,162.354 99.343 C 162.654 99.297,162.360 99.261,161.700 99.262 C 161.040 99.263,160.794 99.300,161.154 99.345 M331.650 102.500 C 331.653 102.940,331.694 103.096,331.741 102.848 C 331.789 102.599,331.787 102.239,331.737 102.048 C 331.687 101.856,331.648 102.060,331.650 102.500 M196.000 102.835 C 196.000 102.871,196.377 103.260,196.838 103.700 C 197.298 104.140,197.539 104.301,197.374 104.057 C 197.103 103.659,196.000 102.678,196.000 102.835 M195.728 103.700 C 196.190 104.490,196.200 104.501,196.200 104.255 C 196.200 104.139,196.015 103.832,195.788 103.572 L 195.376 103.100 195.728 103.700 M193.570 105.918 C 193.382 106.597,193.414 106.695,194.028 107.329 L 194.688 108.009 193.981 107.755 C 193.592 107.615,193.023 107.300,192.717 107.055 L 192.159 106.610 192.576 105.750 C 192.805 105.277,193.056 104.578,193.134 104.195 L 193.276 103.500 193.524 104.344 C 193.701 104.950,193.714 105.394,193.570 105.918 M197.776 105.244 C 197.868 105.799,197.896 105.827,197.959 105.427 C 198.000 105.167,197.951 104.871,197.851 104.771 C 197.740 104.660,197.710 104.846,197.776 105.244 M378.900 105.200 C 378.729 105.530,378.635 105.800,378.690 105.800 C 378.745 105.800,378.929 105.530,379.100 105.200 C 379.271 104.870,379.365 104.600,379.310 104.600 C 379.255 104.600,379.071 104.870,378.900 105.200 M344.481 109.700 C 344.481 111.460,344.512 112.153,344.549 111.241 C 344.586 110.328,344.586 108.888,344.548 108.041 C 344.511 107.193,344.481 107.940,344.481 109.700 M323.087 108.650 L 322.500 109.300 323.150 108.713 C 323.756 108.165,323.892 108.000,323.737 108.000 C 323.703 108.000,323.410 108.293,323.087 108.650 M329.399 110.450 C 329.105 110.852,329.057 110.992,329.273 110.816 C 329.601 110.550,330.097 109.800,329.945 109.800 C 329.906 109.800,329.661 110.093,329.399 110.450 M320.000 110.200 C 319.588 110.332,319.570 110.363,319.900 110.377 C 320.120 110.386,320.435 110.307,320.600 110.200 C 320.950 109.974,320.707 109.974,320.000 110.200 M316.300 110.414 C 316.520 110.501,317.330 110.571,318.100 110.570 C 319.873 110.568,319.579 110.457,317.500 110.344 C 316.613 110.295,316.078 110.327,316.300 110.414 M308.792 112.650 C 309.620 113.533,309.800 113.692,309.800 113.542 C 309.800 113.510,309.373 113.082,308.850 112.592 L 307.900 111.700 308.792 112.650 M327.589 112.750 L 326.900 113.500 327.650 112.811 C 328.348 112.169,328.492 112.000,328.339 112.000 C 328.306 112.000,327.968 112.338,327.589 112.750 M339.450 116.346 C 339.863 116.389,340.538 116.389,340.950 116.346 C 341.363 116.303,341.025 116.267,340.200 116.267 C 339.375 116.267,339.038 116.303,339.450 116.346 M377.136 122.509 C 376.666 123.495,376.732 123.662,377.223 122.731 C 377.446 122.308,377.594 121.927,377.550 121.884 C 377.507 121.840,377.321 122.122,377.136 122.509 M376.108 124.621 C 375.815 125.182,375.613 125.680,375.660 125.727 C 375.708 125.774,375.859 125.540,375.997 125.206 C 376.135 124.873,376.317 124.600,376.401 124.600 C 376.485 124.600,376.596 124.375,376.649 124.100 C 376.784 123.396,376.713 123.463,376.108 124.621 M365.581 133.461 C 365.670 133.550,366.228 133.594,366.821 133.559 L 367.900 133.494 366.659 133.397 C 365.977 133.344,365.491 133.373,365.581 133.461 M369.755 133.547 C 370.226 133.589,370.946 133.588,371.355 133.545 C 371.765 133.502,371.380 133.468,370.500 133.469 C 369.620 133.469,369.285 133.504,369.755 133.547 M52.150 157.347 C 52.727 157.388,53.673 157.388,54.250 157.347 C 54.828 157.307,54.355 157.274,53.200 157.274 C 52.045 157.274,51.573 157.307,52.150 157.347 M62.257 157.348 C 62.894 157.388,63.884 157.387,64.457 157.347 C 65.031 157.307,64.510 157.274,63.300 157.275 C 62.090 157.275,61.621 157.308,62.257 157.348 M46.650 157.543 C 46.953 157.589,47.448 157.589,47.750 157.543 C 48.053 157.497,47.805 157.460,47.200 157.460 C 46.595 157.460,46.348 157.497,46.650 157.543 M69.253 157.544 C 69.557 157.589,70.007 157.588,70.253 157.541 C 70.499 157.493,70.250 157.456,69.700 157.457 C 69.150 157.459,68.949 157.498,69.253 157.544 M42.550 157.741 C 42.798 157.789,43.203 157.789,43.450 157.741 C 43.698 157.693,43.495 157.654,43.000 157.654 C 42.505 157.654,42.303 157.693,42.550 157.741 M73.946 157.744 C 74.301 157.789,74.931 157.789,75.346 157.746 C 75.760 157.703,75.470 157.667,74.700 157.666 C 73.930 157.665,73.590 157.700,73.946 157.744 M39.450 157.938 C 39.643 157.988,39.958 157.988,40.150 157.938 C 40.343 157.888,40.185 157.846,39.800 157.846 C 39.415 157.846,39.258 157.888,39.450 157.938 M78.453 157.944 C 78.757 157.989,79.207 157.988,79.453 157.941 C 79.699 157.893,79.450 157.856,78.900 157.857 C 78.350 157.859,78.149 157.898,78.453 157.944 M82.352 158.141 C 82.601 158.189,82.961 158.187,83.152 158.137 C 83.344 158.087,83.140 158.048,82.700 158.050 C 82.260 158.053,82.104 158.094,82.352 158.141 M34.850 158.338 C 35.043 158.388,35.358 158.388,35.550 158.338 C 35.742 158.288,35.585 158.246,35.200 158.246 C 34.815 158.246,34.657 158.288,34.850 158.338 M87.250 158.538 C 87.442 158.588,87.758 158.588,87.950 158.538 C 88.142 158.488,87.985 158.446,87.600 158.446 C 87.215 158.446,87.058 158.488,87.250 158.538 M116.550 161.748 C 117.238 161.787,118.363 161.787,119.050 161.748 C 119.738 161.709,119.175 161.677,117.800 161.677 C 116.425 161.677,115.863 161.709,116.550 161.748 M173.650 161.748 C 174.393 161.787,175.608 161.787,176.350 161.748 C 177.093 161.710,176.485 161.678,175.000 161.678 C 173.515 161.678,172.908 161.710,173.650 161.748 M185.841 161.948 C 186.579 161.986,187.839 161.987,188.641 161.949 C 189.444 161.911,188.840 161.879,187.300 161.879 C 185.760 161.879,185.104 161.910,185.841 161.948 M194.650 162.146 C 195.063 162.189,195.738 162.189,196.150 162.146 C 196.563 162.103,196.225 162.067,195.400 162.067 C 194.575 162.067,194.238 162.103,194.650 162.146 M199.955 162.347 C 200.426 162.389,201.146 162.388,201.555 162.345 C 201.965 162.302,201.580 162.268,200.700 162.269 C 199.820 162.269,199.485 162.304,199.955 162.347 M205.557 162.548 C 206.138 162.588,207.038 162.588,207.557 162.547 C 208.076 162.506,207.600 162.473,206.500 162.473 C 205.400 162.474,204.976 162.507,205.557 162.548 M211.346 162.744 C 211.701 162.789,212.331 162.789,212.746 162.746 C 213.160 162.703,212.870 162.667,212.100 162.666 C 211.330 162.665,210.990 162.700,211.346 162.744 M217.546 162.944 C 217.901 162.989,218.531 162.989,218.946 162.946 C 219.360 162.903,219.070 162.867,218.300 162.866 C 217.530 162.865,217.190 162.900,217.546 162.944 M223.554 163.145 C 223.913 163.189,224.453 163.189,224.754 163.143 C 225.054 163.097,224.760 163.061,224.100 163.062 C 223.440 163.063,223.194 163.100,223.554 163.145 M228.250 163.343 C 228.553 163.389,229.048 163.389,229.350 163.343 C 229.653 163.297,229.405 163.260,228.800 163.260 C 228.195 163.260,227.947 163.297,228.250 163.343 M234.050 163.543 C 234.353 163.589,234.847 163.589,235.150 163.543 C 235.453 163.497,235.205 163.460,234.600 163.460 C 233.995 163.460,233.748 163.497,234.050 163.543 M239.755 163.747 C 240.226 163.789,240.946 163.788,241.355 163.745 C 241.765 163.702,241.380 163.668,240.500 163.669 C 239.620 163.669,239.285 163.704,239.755 163.747 M244.955 163.947 C 245.426 163.989,246.146 163.988,246.555 163.945 C 246.965 163.902,246.580 163.868,245.700 163.869 C 244.820 163.869,244.485 163.904,244.955 163.947 M251.757 164.148 C 252.338 164.188,253.238 164.188,253.757 164.147 C 254.276 164.106,253.800 164.073,252.700 164.073 C 251.600 164.074,251.176 164.107,251.757 164.148 M257.546 164.344 C 257.901 164.389,258.531 164.389,258.946 164.346 C 259.360 164.303,259.070 164.267,258.300 164.266 C 257.530 164.265,257.190 164.300,257.546 164.344 M263.050 164.543 C 263.353 164.589,263.848 164.589,264.150 164.543 C 264.453 164.497,264.205 164.460,263.600 164.460 C 262.995 164.460,262.748 164.497,263.050 164.543 M267.850 164.746 C 268.262 164.789,268.938 164.789,269.350 164.746 C 269.762 164.703,269.425 164.667,268.600 164.667 C 267.775 164.667,267.438 164.703,267.850 164.746 M273.250 164.947 C 273.772 164.988,274.627 164.988,275.150 164.947 C 275.673 164.906,275.245 164.872,274.200 164.872 C 273.155 164.872,272.728 164.906,273.250 164.947 M281.658 165.148 C 282.405 165.187,283.575 165.187,284.258 165.148 C 284.941 165.109,284.330 165.077,282.900 165.078 C 281.470 165.078,280.911 165.110,281.658 165.148 M288.650 165.347 C 289.173 165.388,290.028 165.388,290.550 165.347 C 291.072 165.306,290.645 165.272,289.600 165.272 C 288.555 165.272,288.127 165.306,288.650 165.347 M297.058 165.548 C 297.805 165.587,298.975 165.587,299.658 165.548 C 300.341 165.509,299.730 165.477,298.300 165.478 C 296.870 165.478,296.311 165.510,297.058 165.548 M306.050 165.748 C 306.793 165.787,308.007 165.787,308.750 165.748 C 309.493 165.710,308.885 165.678,307.400 165.678 C 305.915 165.678,305.308 165.710,306.050 165.748 M315.558 165.948 C 316.250 165.987,317.330 165.987,317.958 165.948 C 318.586 165.908,318.020 165.876,316.700 165.876 C 315.380 165.877,314.866 165.909,315.558 165.948 M321.650 166.143 C 321.953 166.189,322.447 166.189,322.750 166.143 C 323.053 166.097,322.805 166.060,322.200 166.060 C 321.595 166.060,321.348 166.097,321.650 166.143 M326.450 166.346 C 326.863 166.389,327.538 166.389,327.950 166.346 C 328.363 166.303,328.025 166.267,327.200 166.267 C 326.375 166.267,326.038 166.303,326.450 166.346 M331.950 166.546 C 332.418 166.589,333.183 166.589,333.650 166.546 C 334.118 166.504,333.735 166.470,332.800 166.470 C 331.865 166.470,331.483 166.504,331.950 166.546 M337.355 166.747 C 337.826 166.789,338.546 166.788,338.955 166.745 C 339.365 166.702,338.980 166.668,338.100 166.669 C 337.220 166.669,336.885 166.704,337.355 166.747 M344.157 166.948 C 344.738 166.988,345.638 166.988,346.157 166.947 C 346.676 166.906,346.200 166.873,345.100 166.873 C 344.000 166.874,343.576 166.907,344.157 166.948 M349.752 167.141 C 350.001 167.189,350.361 167.187,350.552 167.137 C 350.744 167.087,350.540 167.048,350.100 167.050 C 349.660 167.053,349.504 167.094,349.752 167.141 M353.955 167.347 C 354.426 167.389,355.146 167.388,355.555 167.345 C 355.965 167.302,355.580 167.268,354.700 167.269 C 353.820 167.269,353.485 167.304,353.955 167.347 M358.750 167.545 C 359.108 167.589,359.693 167.589,360.050 167.545 C 360.408 167.500,360.115 167.464,359.400 167.464 C 358.685 167.464,358.393 167.500,358.750 167.545 M363.450 167.746 C 363.863 167.789,364.538 167.789,364.950 167.746 C 365.363 167.703,365.025 167.667,364.200 167.667 C 363.375 167.667,363.038 167.703,363.450 167.746 M377.058 167.948 C 377.805 167.987,378.975 167.987,379.658 167.948 C 380.341 167.909,379.730 167.877,378.300 167.878 C 376.870 167.878,376.311 167.910,377.058 167.948 M392.850 167.948 C 393.483 167.987,394.518 167.987,395.150 167.948 C 395.783 167.908,395.265 167.876,394.000 167.876 C 392.735 167.876,392.218 167.908,392.850 167.948 " stroke="none" fill="#39d4da" fill-rule="evenodd"></path><path id="path1" d="M240.100 72.132 C 240.430 72.306,240.880 72.607,241.100 72.802 C 241.486 73.142,241.543 73.130,242.700 72.480 L 243.900 71.805 241.700 71.810 C 239.573 71.816,239.520 71.826,240.100 72.132 M90.176 73.500 C 90.138 75.804,90.208 93.075,90.256 93.113 C 90.401 93.227,95.044 94.222,95.112 94.154 C 95.246 94.021,95.285 72.419,95.152 72.285 C 95.085 72.219,93.944 72.150,92.615 72.132 L 90.200 72.100 90.176 73.500 M243.008 76.631 C 242.040 77.152,241.333 77.406,240.993 77.356 C 240.706 77.314,240.366 77.391,240.238 77.528 C 240.110 77.665,239.868 77.854,239.700 77.948 C 239.392 78.120,239.472 79.400,239.790 79.400 C 240.169 79.400,244.800 76.340,244.800 76.089 C 244.800 75.690,244.701 75.720,243.008 76.631 M11.093 80.100 C 11.029 80.540,11.005 81.792,11.039 82.881 L 11.100 84.862 17.448 84.896 C 24.320 84.932,24.175 84.915,23.641 85.619 C 23.153 86.263,21.600 89.379,21.600 89.714 C 21.600 89.860,21.443 90.072,21.250 90.184 C 21.058 90.296,20.978 90.391,21.073 90.394 C 21.168 90.397,21.099 90.625,20.918 90.900 C 20.738 91.175,20.660 91.401,20.745 91.403 C 20.830 91.405,20.782 91.481,20.637 91.573 C 20.492 91.665,20.344 91.866,20.307 92.020 C 20.139 92.730,19.941 93.200,19.809 93.200 C 19.729 93.200,19.544 93.583,19.396 94.050 C 19.249 94.517,19.010 95.042,18.864 95.216 C 18.719 95.389,18.600 95.682,18.600 95.866 C 18.600 96.050,18.531 96.200,18.447 96.200 C 18.362 96.200,18.079 96.740,17.816 97.400 C 17.554 98.060,17.248 98.600,17.137 98.600 C 17.025 98.600,16.986 98.653,17.050 98.717 C 17.114 98.781,16.949 99.266,16.683 99.796 C 16.418 100.325,16.200 100.855,16.200 100.973 C 16.200 101.091,15.938 101.708,15.617 102.344 C 15.297 102.980,14.631 104.400,14.139 105.500 C 13.646 106.600,12.334 109.378,11.224 111.674 C 10.114 113.969,9.242 115.906,9.285 115.976 C 9.329 116.047,12.950 116.087,17.332 116.064 C 21.715 116.042,26.946 116.018,28.957 116.012 C 32.509 116.000,32.608 115.989,32.407 115.613 C 32.136 115.107,32.129 110.781,32.400 111.200 C 32.507 111.365,32.595 111.399,32.597 111.274 C 32.605 110.711,31.895 110.660,24.745 110.702 C 17.706 110.744,16.602 110.664,17.647 110.188 C 18.141 109.963,18.862 108.615,18.898 107.852 C 18.909 107.605,19.086 107.281,19.290 107.132 C 19.524 106.961,19.601 106.764,19.500 106.599 C 19.388 106.419,19.416 106.386,19.591 106.494 C 19.778 106.610,19.806 106.535,19.700 106.200 C 19.603 105.896,19.628 105.794,19.776 105.885 C 19.908 105.967,19.953 105.910,19.889 105.744 C 19.762 105.412,23.705 97.400,23.996 97.400 C 24.108 97.400,24.177 97.332,24.150 97.250 C 24.072 97.015,25.073 94.800,25.258 94.800 C 25.349 94.800,25.368 94.710,25.300 94.600 C 25.232 94.490,25.272 94.400,25.388 94.400 C 25.505 94.400,25.582 94.333,25.560 94.250 C 25.486 93.969,25.826 93.200,26.025 93.200 C 26.134 93.200,26.170 93.113,26.105 93.007 C 26.039 92.902,26.215 92.452,26.495 92.007 C 26.776 91.563,26.941 91.200,26.863 91.200 C 26.784 91.200,26.828 91.092,26.960 90.960 C 27.092 90.828,27.200 90.558,27.200 90.360 C 27.200 90.162,27.283 90.000,27.384 90.000 C 27.486 90.000,27.673 89.685,27.800 89.300 C 27.927 88.915,28.129 88.600,28.249 88.600 C 28.369 88.600,28.410 88.544,28.341 88.475 C 28.272 88.405,28.519 87.753,28.889 87.025 C 29.259 86.296,29.619 85.506,29.689 85.268 C 29.759 85.030,29.942 84.731,30.096 84.603 C 30.250 84.475,30.327 84.242,30.267 84.085 C 30.206 83.928,30.257 83.800,30.379 83.800 C 30.500 83.800,30.600 83.663,30.600 83.496 C 30.600 83.328,30.827 82.848,31.105 82.428 C 31.383 82.008,31.645 81.487,31.686 81.271 C 31.728 81.055,31.901 80.546,32.071 80.139 C 32.241 79.733,32.317 79.392,32.240 79.383 C 32.163 79.373,27.400 79.350,21.655 79.333 L 11.210 79.300 11.093 80.100 M210.200 79.357 L 208.500 79.415 208.505 82.140 L 208.511 84.865 212.156 84.844 C 214.160 84.833,215.884 84.771,215.987 84.708 C 216.090 84.644,216.554 84.678,217.018 84.782 C 217.921 84.985,220.945 83.733,227.172 80.580 L 229.463 79.420 227.681 79.414 C 226.702 79.411,222.750 79.384,218.900 79.354 C 215.050 79.324,211.135 79.326,210.200 79.357 M105.350 81.739 L 104.600 81.824 104.600 84.412 L 104.600 87.000 107.167 87.000 C 110.253 87.000,109.920 87.341,109.800 84.299 L 109.700 81.763 107.900 81.709 C 106.910 81.679,105.763 81.692,105.350 81.739 M44.500 82.105 C 45.828 82.473,46.400 82.472,46.400 82.100 C 46.400 81.860,46.112 81.803,44.950 81.813 L 43.500 81.827 44.500 82.105 M41.000 84.865 C 41.000 85.019,41.057 85.562,41.127 86.072 L 41.254 87.000 43.840 87.000 L 46.425 87.000 46.363 86.356 L 46.300 85.712 44.050 85.291 C 42.813 85.060,41.800 84.903,41.800 84.942 C 41.800 84.982,41.620 84.918,41.400 84.800 C 41.089 84.633,41.000 84.648,41.000 84.865 M222.396 88.145 C 222.125 88.335,221.051 89.010,220.009 89.645 C 218.967 90.280,218.168 90.800,218.233 90.800 C 218.872 90.800,223.000 88.555,223.000 88.208 C 223.000 87.715,223.009 87.716,222.396 88.145 M40.981 89.700 C 40.894 90.536,40.984 116.051,41.074 116.141 C 41.225 116.292,46.132 116.334,46.280 116.186 C 46.343 116.123,46.397 110.093,46.401 102.786 L 46.408 89.500 43.705 89.500 C 42.050 89.500,40.994 89.578,40.981 89.700 M118.386 89.450 C 118.359 89.543,118.356 91.291,118.378 94.819 L 118.400 98.337 121.028 98.774 C 122.473 99.015,123.695 99.172,123.743 99.124 C 123.792 99.075,124.044 98.645,124.303 98.168 C 124.563 97.690,124.871 97.323,124.988 97.350 C 125.104 97.378,125.189 97.333,125.176 97.250 C 124.932 95.704,129.489 94.070,131.700 94.910 C 132.140 95.077,132.656 95.266,132.848 95.330 C 133.039 95.393,133.138 95.539,133.067 95.654 C 132.994 95.772,133.035 95.802,133.161 95.724 C 133.743 95.364,136.152 98.372,135.870 99.107 C 135.767 99.374,135.800 99.423,136.000 99.300 C 136.192 99.181,136.234 99.223,136.148 99.448 C 135.867 100.179,140.815 101.118,141.475 100.459 C 141.727 100.206,140.924 97.129,140.264 95.815 C 140.019 95.329,139.874 94.834,139.942 94.715 C 140.009 94.597,139.996 94.561,139.912 94.637 C 139.829 94.712,139.325 94.251,138.794 93.612 C 138.263 92.973,137.600 92.271,137.321 92.052 C 137.042 91.833,136.878 91.582,136.957 91.494 C 137.036 91.407,137.003 91.391,136.883 91.459 C 136.764 91.527,136.359 91.378,135.983 91.127 C 132.847 89.039,128.856 88.873,124.946 90.670 C 124.311 90.961,123.755 91.200,123.710 91.200 C 123.666 91.200,123.652 90.795,123.680 90.300 L 123.731 89.400 121.065 89.400 C 119.599 89.400,118.394 89.423,118.386 89.450 M104.800 89.743 C 104.585 89.791,104.508 90.051,104.529 90.655 C 104.545 91.120,104.567 92.551,104.579 93.836 L 104.600 96.172 105.650 96.383 C 106.228 96.500,107.105 96.647,107.600 96.710 C 108.095 96.774,108.793 96.866,109.150 96.915 L 109.800 97.004 109.800 93.425 L 109.800 89.847 108.550 89.715 C 107.350 89.588,105.429 89.603,104.800 89.743 M160.598 89.939 C 160.214 90.070,159.708 90.183,159.474 90.189 C 159.067 90.200,158.325 90.467,156.800 91.153 C 155.025 91.951,152.493 94.139,151.807 95.467 C 151.646 95.779,151.318 96.246,151.078 96.505 C 150.838 96.764,150.677 97.011,150.721 97.054 C 150.764 97.097,150.583 97.665,150.320 98.316 C 150.056 98.967,149.808 99.770,149.770 100.100 L 149.700 100.700 152.100 100.712 C 155.028 100.726,155.649 100.416,155.424 99.051 C 155.359 98.654,157.724 96.330,158.013 96.508 C 158.185 96.614,158.211 96.580,158.098 96.397 C 157.978 96.203,158.026 96.167,158.278 96.264 C 158.476 96.340,158.571 96.314,158.502 96.204 C 158.437 96.098,158.680 95.891,159.042 95.744 C 162.866 94.185,167.218 95.329,169.371 98.457 C 169.888 99.209,170.111 99.382,170.460 99.303 C 171.447 99.080,173.548 98.803,174.263 98.802 C 175.120 98.800,175.128 98.691,174.380 97.123 C 174.177 96.695,174.067 96.254,174.136 96.142 C 174.205 96.030,174.173 95.993,174.063 96.061 C 173.954 96.128,173.438 95.602,172.916 94.890 C 171.465 92.914,169.661 91.648,166.500 90.387 C 165.313 89.913,161.516 89.625,160.598 89.939 M61.300 91.600 C 60.860 91.921,60.433 92.187,60.350 92.192 C 60.055 92.208,58.418 93.752,57.689 94.703 C 56.931 95.690,56.000 97.357,56.000 97.725 C 56.000 97.876,55.910 98.000,55.800 98.000 C 55.690 98.000,55.619 98.067,55.643 98.150 C 55.666 98.233,55.492 99.020,55.256 99.900 C 54.804 101.585,54.448 123.455,54.745 131.236 C 54.878 134.711,54.629 134.478,57.999 134.274 L 60.200 134.140 60.200 124.003 C 60.200 113.203,60.183 113.420,60.977 113.980 C 65.256 116.993,71.338 116.944,75.824 113.860 C 76.695 113.262,78.400 111.643,78.400 111.414 C 78.400 111.296,78.484 111.200,78.587 111.200 C 78.689 111.200,78.831 111.019,78.901 110.797 C 78.971 110.575,79.126 110.454,79.245 110.528 C 79.364 110.602,79.406 110.572,79.338 110.461 C 79.270 110.351,79.369 110.089,79.558 109.880 C 79.885 109.520,80.477 108.369,80.402 108.239 C 80.383 108.206,80.494 107.981,80.649 107.739 C 82.122 105.438,81.712 99.388,79.878 96.352 C 79.150 95.147,79.178 95.160,74.769 94.023 C 61.039 90.483,62.476 90.742,61.300 91.600 M70.808 95.722 C 71.354 95.900,71.800 96.131,71.800 96.235 C 71.800 96.339,71.877 96.376,71.970 96.318 C 72.396 96.056,74.708 98.281,75.296 99.519 C 76.221 101.468,76.409 105.600,75.572 105.600 C 75.465 105.600,75.434 105.694,75.505 105.809 C 75.913 106.468,72.943 109.322,71.066 110.075 C 67.699 111.427,62.346 109.666,61.475 106.921 C 61.405 106.700,61.223 106.395,61.072 106.243 C 60.920 106.092,60.843 105.893,60.899 105.801 C 60.956 105.709,60.912 105.604,60.802 105.567 C 60.601 105.500,60.476 104.798,60.316 102.843 C 60.220 101.673,60.602 100.268,61.280 99.300 C 61.510 98.970,61.700 98.645,61.700 98.578 C 61.700 98.271,63.399 96.775,64.300 96.289 C 66.184 95.271,68.748 95.048,70.808 95.722 M90.136 98.131 C 90.061 98.206,90.000 102.234,90.000 107.083 L 89.999 115.900 92.700 115.839 L 95.400 115.778 95.426 111.839 C 95.440 109.673,95.459 105.877,95.467 103.404 L 95.482 98.907 94.940 98.865 C 94.352 98.820,91.097 98.239,90.586 98.088 C 90.413 98.037,90.210 98.057,90.136 98.131 M104.457 103.500 C 104.459 104.050,104.498 104.251,104.544 103.947 C 104.589 103.643,104.588 103.193,104.541 102.947 C 104.493 102.701,104.456 102.950,104.457 103.500 M118.633 103.224 C 118.694 103.660,123.396 104.619,123.783 104.274 C 123.829 104.233,123.770 104.200,123.652 104.200 C 123.534 104.200,123.481 104.035,123.533 103.833 C 123.619 103.505,123.409 103.439,121.565 103.220 C 120.429 103.084,119.290 102.923,119.033 102.861 C 118.631 102.764,118.575 102.815,118.633 103.224 M174.700 103.021 C 172.050 103.456,172.200 103.396,172.200 104.022 L 172.200 104.600 174.000 104.600 C 175.733 104.600,175.800 104.583,175.803 104.150 C 175.804 103.903,175.860 103.498,175.926 103.250 C 175.992 103.003,175.969 102.813,175.873 102.828 C 175.778 102.844,175.250 102.930,174.700 103.021 M123.857 105.500 C 123.859 106.050,123.898 106.251,123.944 105.947 C 123.989 105.643,123.988 105.193,123.941 104.947 C 123.893 104.701,123.856 104.950,123.857 105.500 M136.552 105.741 C 136.801 105.789,137.161 105.787,137.352 105.737 C 137.544 105.687,137.340 105.648,136.900 105.650 C 136.460 105.653,136.304 105.694,136.552 105.741 M104.454 106.600 C 104.454 107.095,104.493 107.297,104.541 107.050 C 104.589 106.803,104.589 106.397,104.541 106.150 C 104.493 105.903,104.454 106.105,104.454 106.600 M151.750 106.348 C 152.438 106.387,153.563 106.387,154.250 106.348 C 154.938 106.309,154.375 106.277,153.000 106.277 C 151.625 106.277,151.063 106.309,151.750 106.348 M110.064 108.600 C 110.064 109.315,110.100 109.608,110.145 109.250 C 110.189 108.892,110.189 108.308,110.145 107.950 C 110.100 107.593,110.064 107.885,110.064 108.600 M118.064 109.400 C 118.064 110.115,118.100 110.408,118.145 110.050 C 118.189 109.692,118.189 109.108,118.145 108.750 C 118.100 108.392,118.064 108.685,118.064 109.400 M104.466 111.700 C 104.467 112.470,104.503 112.760,104.546 112.346 C 104.589 111.931,104.589 111.301,104.544 110.946 C 104.500 110.590,104.465 110.930,104.466 111.700 M123.846 111.400 C 123.846 111.785,123.888 111.942,123.938 111.750 C 123.988 111.558,123.988 111.243,123.938 111.050 C 123.888 110.858,123.846 111.015,123.846 111.400 M153.200 112.700 C 153.573 113.085,153.923 113.400,153.978 113.400 C 154.033 113.400,153.773 113.085,153.400 112.700 C 153.027 112.315,152.677 112.000,152.622 112.000 C 152.567 112.000,152.827 112.315,153.200 112.700 M104.450 114.100 C 104.453 114.540,104.494 114.696,104.541 114.448 C 104.589 114.199,104.587 113.839,104.537 113.648 C 104.487 113.456,104.448 113.660,104.450 114.100 M109.984 115.650 C 109.925 116.080,109.955 116.325,110.056 116.224 C 110.152 116.128,110.199 115.790,110.160 115.474 C 110.094 114.946,110.080 114.960,109.984 115.650 " stroke="none" fill="#0f071a" fill-rule="evenodd"></path><path id="path2" d="M338.800 102.900 L 338.800 116.200 341.600 116.200 L 344.400 116.200 344.400 108.244 L 344.400 100.289 345.090 98.894 C 346.100 96.852,346.689 96.307,348.500 95.746 C 351.159 94.923,353.023 95.395,355.105 97.420 L 356.110 98.397 358.065 96.435 L 360.020 94.472 358.430 92.953 C 354.490 89.189,347.825 88.402,344.758 91.341 L 344.200 91.875 344.200 90.737 L 344.200 89.600 341.500 89.600 L 338.800 89.600 338.800 102.900 M364.682 90.100 C 364.753 90.381,365.023 91.081,365.283 91.655 C 366.089 93.438,366.522 94.423,367.502 96.700 C 368.023 97.910,368.628 99.305,368.847 99.800 C 369.066 100.295,369.405 101.060,369.600 101.500 C 369.795 101.940,370.600 103.785,371.389 105.600 C 372.178 107.415,372.943 109.170,373.090 109.500 C 375.211 114.259,375.201 113.414,373.192 117.528 C 372.308 119.340,371.192 121.649,370.713 122.661 C 369.017 126.241,367.446 129.522,366.578 131.300 C 366.095 132.290,365.670 133.167,365.633 133.250 C 365.597 133.333,366.997 133.400,368.744 133.400 L 371.922 133.400 372.899 131.350 C 373.436 130.222,374.746 127.500,375.810 125.300 C 376.874 123.100,377.946 120.859,378.191 120.319 C 378.687 119.230,380.831 114.724,381.959 112.400 C 382.359 111.575,382.757 110.870,382.843 110.833 C 382.929 110.797,383.000 110.643,383.000 110.492 C 383.000 110.237,383.671 108.795,386.907 102.100 C 390.519 94.625,392.800 89.824,392.800 89.695 C 392.800 89.643,391.401 89.600,389.692 89.600 L 386.584 89.600 384.523 93.850 C 383.389 96.188,382.277 98.505,382.051 99.000 C 379.978 103.545,378.022 107.248,378.006 106.656 C 378.003 106.522,377.765 105.892,377.478 105.256 C 377.192 104.620,376.840 103.830,376.698 103.500 C 376.556 103.170,376.215 102.405,375.940 101.800 C 375.666 101.195,375.198 100.115,374.900 99.400 C 374.602 98.685,374.178 97.695,373.957 97.200 C 373.735 96.705,373.375 95.895,373.156 95.400 C 372.937 94.905,372.637 94.230,372.488 93.900 C 372.340 93.570,371.867 92.490,371.436 91.500 L 370.654 89.700 367.604 89.645 L 364.554 89.589 364.682 90.100 " stroke="none" fill="#9434ec" fill-rule="evenodd"></path><path id="path3" d="M244.500 76.564 C 243.982 77.050,239.870 79.600,239.603 79.600 C 239.467 79.600,239.400 85.627,239.400 97.900 L 239.400 116.200 242.192 116.200 L 244.983 116.200 245.042 107.950 L 245.100 99.700 245.634 98.687 C 248.337 93.566,255.374 94.375,257.172 100.014 C 257.326 100.497,257.400 103.231,257.400 108.464 L 257.400 116.200 260.108 116.200 L 262.816 116.200 262.758 107.450 C 262.701 98.887,262.690 98.673,262.238 97.422 C 259.904 90.959,252.313 87.749,246.309 90.687 C 245.732 90.969,245.203 91.200,245.132 91.200 C 245.062 91.200,244.981 87.822,244.952 83.694 C 244.900 76.198,244.900 76.189,244.500 76.564 M208.446 80.600 C 208.446 80.985,208.488 81.142,208.538 80.950 C 208.588 80.758,208.588 80.442,208.538 80.250 C 208.488 80.058,208.446 80.215,208.446 80.600 M109.799 83.859 L 109.898 86.100 109.956 84.017 C 109.988 82.872,109.944 81.864,109.857 81.777 C 109.771 81.690,109.744 82.627,109.799 83.859 M104.450 84.900 C 104.453 85.340,104.494 85.496,104.541 85.248 C 104.589 84.999,104.587 84.639,104.537 84.448 C 104.487 84.256,104.448 84.460,104.450 84.900 M106.058 87.148 C 106.805 87.187,107.975 87.187,108.658 87.148 C 109.341 87.109,108.730 87.077,107.300 87.078 C 105.870 87.078,105.311 87.110,106.058 87.148 M161.950 89.741 C 162.197 89.789,162.603 89.789,162.850 89.741 C 163.097 89.693,162.895 89.654,162.400 89.654 C 161.905 89.654,161.703 89.693,161.950 89.741 M280.469 89.997 C 272.703 92.033,268.600 99.924,271.288 107.657 C 274.351 116.469,286.280 119.138,293.098 112.537 C 294.537 111.144,296.098 108.920,295.882 108.571 C 295.637 108.174,289.487 108.372,289.110 108.789 C 286.099 112.116,278.936 110.646,276.650 106.231 C 275.848 104.682,275.039 104.800,286.460 104.800 C 298.109 104.800,297.200 104.957,297.200 102.949 C 297.200 94.354,288.763 87.823,280.469 89.997 M315.056 89.887 C 311.681 90.705,308.502 93.037,306.773 95.965 C 304.040 100.592,304.057 105.867,306.818 109.995 C 313.207 119.546,327.140 118.085,330.851 107.476 C 334.387 97.367,325.415 87.377,315.056 89.887 M118.280 95.300 C 118.280 96.950,118.311 97.598,118.349 96.741 C 118.386 95.883,118.386 94.533,118.348 93.741 C 118.310 92.948,118.280 93.650,118.280 95.300 M109.846 94.800 C 109.846 95.185,109.888 95.343,109.938 95.150 C 109.988 94.958,109.988 94.642,109.938 94.450 C 109.888 94.258,109.846 94.415,109.846 94.800 M320.214 95.523 C 328.833 98.082,327.171 110.432,318.200 110.488 C 310.146 110.539,307.382 99.912,314.514 96.317 C 315.151 95.996,315.791 95.733,315.936 95.733 C 316.081 95.733,316.200 95.665,316.200 95.581 C 316.200 95.151,318.834 95.113,320.214 95.523 M287.477 96.204 C 288.692 96.790,290.600 98.511,290.600 99.022 C 290.600 99.123,287.602 99.200,283.683 99.200 L 276.766 99.200 277.391 98.411 C 278.562 96.933,280.394 95.761,281.900 95.527 C 283.646 95.255,286.138 95.558,287.477 96.204 M169.000 98.400 C 169.235 98.730,169.472 99.000,169.527 99.000 C 169.582 99.000,169.435 98.730,169.200 98.400 C 168.965 98.070,168.728 97.800,168.673 97.800 C 168.618 97.800,168.765 98.070,169.000 98.400 M173.450 104.746 C 173.863 104.789,174.538 104.789,174.950 104.746 C 175.363 104.703,175.025 104.667,174.200 104.667 C 173.375 104.667,173.038 104.703,173.450 104.746 " stroke="none" fill="#6c28b2" fill-rule="evenodd"></path><path id="path4" d="M94.839 72.124 C 95.054 72.188,95.208 72.494,95.263 72.962 L 95.348 73.700 95.324 72.902 C 95.305 72.259,95.222 72.095,94.900 72.063 C 94.610 72.034,94.593 72.051,94.839 72.124 M95.266 75.100 C 95.267 75.870,95.303 76.160,95.346 75.746 C 95.389 75.331,95.389 74.701,95.344 74.346 C 95.300 73.990,95.265 74.330,95.266 75.100 M95.273 81.300 C 95.274 82.400,95.307 82.824,95.348 82.243 C 95.388 81.662,95.388 80.762,95.347 80.243 C 95.306 79.724,95.273 80.200,95.273 81.300 M90.088 87.000 C 90.088 90.135,90.116 91.418,90.150 89.850 C 90.183 88.282,90.183 85.718,90.150 84.150 C 90.116 82.582,90.088 83.865,90.088 87.000 M108.450 81.738 C 108.642 81.788,108.958 81.788,109.150 81.738 C 109.343 81.688,109.185 81.646,108.800 81.646 C 108.415 81.646,108.258 81.688,108.450 81.738 M104.446 83.000 C 104.446 83.385,104.488 83.543,104.538 83.350 C 104.588 83.158,104.588 82.843,104.538 82.650 C 104.488 82.458,104.446 82.615,104.446 83.000 M95.287 89.000 C 95.287 91.805,95.315 92.953,95.349 91.550 C 95.384 90.148,95.384 87.853,95.349 86.450 C 95.315 85.048,95.287 86.195,95.287 89.000 M220.413 89.806 C 219.046 90.451,217.853 90.933,217.763 90.877 C 217.673 90.822,217.600 96.497,217.600 103.488 L 217.600 116.200 220.400 116.200 L 223.200 116.200 223.200 102.400 C 223.200 94.810,223.132 88.607,223.050 88.616 C 222.968 88.625,221.781 89.161,220.413 89.806 M128.379 89.288 C 128.331 89.336,128.034 89.422,127.721 89.479 C 127.407 89.536,127.094 89.644,127.025 89.720 C 126.829 89.935,128.263 89.617,128.484 89.396 C 128.592 89.288,128.632 89.200,128.573 89.200 C 128.515 89.200,128.427 89.240,128.379 89.288 M131.900 89.600 C 132.492 89.854,133.194 89.854,132.800 89.600 C 132.635 89.493,132.275 89.411,132.000 89.417 C 131.542 89.427,131.534 89.443,131.900 89.600 M108.998 89.741 C 109.382 89.791,109.772 89.938,109.863 90.066 C 109.977 90.226,110.005 90.205,109.950 90.000 C 109.897 89.804,109.597 89.691,109.085 89.675 C 108.333 89.650,108.329 89.653,108.998 89.741 M159.473 90.044 C 159.355 90.235,159.731 90.215,160.400 89.996 C 160.856 89.847,160.841 89.835,160.235 89.860 C 159.869 89.875,159.526 89.958,159.473 90.044 M164.700 90.000 C 164.920 90.095,165.280 90.169,165.500 90.166 C 165.822 90.161,165.802 90.129,165.400 90.000 C 164.716 89.781,164.190 89.781,164.700 90.000 M158.600 90.140 C 157.054 90.699,155.599 91.455,154.922 92.050 C 154.704 92.243,154.452 92.400,154.362 92.400 C 154.273 92.400,154.200 92.490,154.200 92.600 C 154.200 92.709,154.628 92.500,155.150 92.133 C 156.067 91.490,156.652 91.187,158.250 90.529 C 158.800 90.303,159.374 89.882,158.950 90.016 C 158.923 90.024,158.765 90.080,158.600 90.140 M124.750 90.514 C 123.975 90.935,124.062 91.080,124.850 90.680 C 125.604 90.296,125.737 90.197,125.483 90.208 C 125.383 90.212,125.053 90.350,124.750 90.514 M135.400 90.696 C 135.400 90.728,135.622 90.900,135.894 91.078 C 136.281 91.331,136.365 91.340,136.280 91.120 C 136.191 90.888,135.400 90.507,135.400 90.696 M168.400 91.090 C 168.400 91.145,168.670 91.329,169.000 91.500 C 169.330 91.671,169.600 91.765,169.600 91.710 C 169.600 91.655,169.330 91.471,169.000 91.300 C 168.670 91.129,168.400 91.035,168.400 91.090 M137.045 91.792 C 137.344 92.030,138.053 92.737,138.619 93.363 C 139.185 93.988,139.469 94.255,139.250 93.955 C 138.483 92.909,137.643 92.038,137.074 91.699 L 136.500 91.358 137.045 91.792 M109.850 92.300 C 109.853 92.740,109.894 92.896,109.941 92.648 C 109.989 92.399,109.987 92.039,109.937 91.848 C 109.887 91.656,109.848 91.860,109.850 92.300 M170.492 92.445 C 170.826 92.744,171.180 92.992,171.277 92.995 C 171.374 92.998,171.194 92.804,170.877 92.564 C 169.991 91.895,169.819 91.841,170.492 92.445 M152.887 93.850 L 152.300 94.500 152.950 93.913 C 153.308 93.590,153.600 93.297,153.600 93.263 C 153.600 93.108,153.435 93.244,152.887 93.850 M128.671 94.753 C 128.545 94.834,129.151 94.904,130.017 94.910 C 130.884 94.915,131.482 94.849,131.346 94.763 C 131.035 94.565,128.976 94.557,128.671 94.753 M151.331 95.779 C 151.025 96.341,150.814 96.800,150.861 96.800 C 151.043 96.800,152.020 95.161,151.955 94.965 C 151.917 94.852,151.636 95.218,151.331 95.779 M161.400 95.112 C 162.092 95.264,164.371 95.306,164.146 95.162 C 164.011 95.076,163.270 95.015,162.500 95.026 C 161.730 95.037,161.235 95.076,161.400 95.112 M173.436 95.606 C 173.677 95.932,173.901 96.200,173.933 96.200 C 174.110 96.200,173.502 95.205,173.271 95.117 C 173.109 95.055,173.177 95.256,173.436 95.606 M159.400 95.609 C 159.181 95.757,159.262 95.776,159.700 95.678 C 160.435 95.513,160.595 95.399,160.083 95.403 C 159.873 95.405,159.565 95.497,159.400 95.609 M125.700 96.303 L 125.100 96.804 125.749 96.452 C 126.106 96.258,126.398 96.033,126.399 95.950 C 126.401 95.731,126.360 95.752,125.700 96.303 M134.333 96.620 C 134.784 97.126,135.310 97.871,135.502 98.277 C 135.695 98.682,135.897 98.970,135.950 98.916 C 136.129 98.737,135.046 97.111,134.274 96.400 L 133.514 95.700 134.333 96.620 M156.909 97.226 C 156.292 97.791,155.822 98.288,155.865 98.332 C 155.909 98.375,156.458 97.913,157.086 97.305 C 158.522 95.914,158.403 95.861,156.909 97.226 M124.856 97.250 C 124.465 97.755,124.331 98.066,124.568 97.920 C 124.805 97.773,125.279 97.000,125.132 97.000 C 125.086 97.000,124.962 97.113,124.856 97.250 M140.800 97.150 C 140.800 97.245,140.931 97.498,141.090 97.712 C 141.370 98.086,141.376 98.084,141.266 97.647 C 141.152 97.195,140.800 96.820,140.800 97.150 M141.337 99.200 C 141.402 99.695,141.488 100.138,141.528 100.183 C 141.678 100.357,141.564 99.082,141.395 98.700 C 141.277 98.433,141.257 98.599,141.337 99.200 M172.300 99.000 L 171.500 99.143 172.238 99.172 C 172.644 99.187,173.032 99.110,173.100 99.000 C 173.168 98.890,173.196 98.813,173.162 98.828 C 173.128 98.844,172.740 98.921,172.300 99.000 M139.050 100.543 C 139.353 100.589,139.847 100.589,140.150 100.543 C 140.453 100.497,140.205 100.460,139.600 100.460 C 138.995 100.460,138.748 100.497,139.050 100.543 M151.754 100.745 C 152.113 100.789,152.653 100.789,152.954 100.743 C 153.254 100.697,152.960 100.661,152.300 100.662 C 151.640 100.663,151.394 100.700,151.754 100.745 M104.587 101.650 C 104.526 101.881,104.504 115.759,104.564 115.950 C 104.622 116.134,105.354 116.200,107.321 116.200 L 110.000 116.200 110.000 109.330 L 110.000 102.460 107.538 102.030 C 105.158 101.614,104.615 101.544,104.587 101.650 M118.339 103.742 C 118.235 103.914,118.127 110.606,118.172 114.050 L 118.200 116.200 120.994 116.200 L 123.788 116.200 123.844 110.305 L 123.900 104.410 123.400 104.314 C 123.125 104.262,122.045 104.119,121.000 103.996 C 119.955 103.874,118.950 103.731,118.767 103.679 C 118.584 103.626,118.391 103.655,118.339 103.742 M136.200 111.000 L 136.200 116.200 138.900 116.200 L 141.600 116.200 141.600 111.000 L 141.600 105.800 138.900 105.800 L 136.200 105.800 136.200 111.000 M149.722 106.950 C 151.590 114.871,162.400 118.874,169.655 114.330 C 171.892 112.929,175.103 109.252,174.682 108.571 C 174.439 108.177,168.088 108.371,167.714 108.785 C 165.070 111.706,158.019 110.690,156.091 107.110 L 155.709 106.400 152.651 106.400 L 149.592 106.400 149.722 106.950 M32.224 113.100 C 32.214 114.310,32.284 115.422,32.378 115.572 C 32.604 115.928,32.630 112.529,32.408 111.600 C 32.284 111.081,32.236 111.468,32.224 113.100 M13.750 116.145 C 14.107 116.189,14.693 116.189,15.050 116.145 C 15.407 116.100,15.115 116.064,14.400 116.064 C 13.685 116.064,13.393 116.100,13.750 116.145 M18.650 116.146 C 19.063 116.189,19.738 116.189,20.150 116.146 C 20.563 116.103,20.225 116.067,19.400 116.067 C 18.575 116.067,18.238 116.103,18.650 116.146 M23.850 116.138 C 24.043 116.188,24.358 116.188,24.550 116.138 C 24.743 116.088,24.585 116.046,24.200 116.046 C 23.815 116.046,23.657 116.088,23.850 116.138 M26.950 116.149 C 27.967 116.185,29.632 116.185,30.650 116.149 C 31.668 116.113,30.835 116.083,28.800 116.083 C 26.765 116.083,25.933 116.113,26.950 116.149 " stroke="none" fill="#541c84" fill-rule="evenodd"></path></g></svg>